<svg xmlns="http://www.w3.org/2000/svg" xmlns:xlink="http://www.w3.org/1999/xlink" width="40" zoomAndPan="magnify" viewBox="0 0 30 30.000001" height="40" preserveAspectRatio="xMidYMid meet" version="1.0"><defs><clipPath id="54230ea403"><path d="M 0.484375 0 L 29.515625 0 L 29.515625 28.855469 L 0.484375 28.855469 Z M 0.484375 0 " clip-rule="nonzero"/></clipPath><clipPath id="d123563327"><path d="M 3.605469 5 L 26 5 L 26 18 L 3.605469 18 Z M 3.605469 5 " clip-rule="nonzero"/></clipPath><clipPath id="51609c57f5"><path d="M 3.605469 5 L 26 5 L 26 17 L 3.605469 17 Z M 3.605469 5 " clip-rule="nonzero"/></clipPath><clipPath id="574af807a8"><path d="M 12 17 L 15 17 L 15 23.703125 L 12 23.703125 Z M 12 17 " clip-rule="nonzero"/></clipPath><clipPath id="1c23b92e4a"><path d="M 3.605469 4.832031 L 26.105469 4.832031 L 26.105469 23.703125 L 3.605469 23.703125 Z M 3.605469 4.832031 " clip-rule="nonzero"/></clipPath></defs><g clip-path="url(#54230ea403)"><path fill="#f79321" d="M 15 -0.175781 C 6.984375 -0.175781 0.484375 6.324219 0.484375 14.339844 C 0.484375 22.355469 6.984375 28.855469 15 28.855469 C 23.015625 28.855469 29.515625 22.355469 29.515625 14.339844 C 29.515625 6.324219 23.015625 -0.175781 15 -0.175781 " fill-opacity="1" fill-rule="nonzero"/></g><g clip-path="url(#d123563327)"><path fill="#f79321" d="M 25.03125 5.082031 L 3.839844 16.554688 L 4.683594 17.769531 L 22.484375 17.769531 L 25.875 6.296875 Z M 25.03125 5.082031 " fill-opacity="1" fill-rule="nonzero"/></g><g clip-path="url(#51609c57f5)"><path fill="#f79321" d="M 7.230469 5.082031 L 3.839844 16.554688 L 21.636719 16.554688 L 25.03125 5.082031 Z M 7.230469 5.082031 " fill-opacity="1" fill-rule="nonzero"/></g><g clip-path="url(#574af807a8)"><path fill="#f79321" d="M 12.339844 17.769531 L 14.75 17.769531 L 14.75 23.460938 L 12.339844 23.460938 Z M 12.339844 17.769531 " fill-opacity="1" fill-rule="nonzero"/></g><g clip-path="url(#1c23b92e4a)"><path fill="#000000" d="M 26.0625 6.164062 L 25.214844 4.949219 L 25.207031 4.941406 C 25.199219 4.933594 25.191406 4.917969 25.183594 4.910156 L 25.175781 4.902344 C 25.167969 4.894531 25.152344 4.886719 25.144531 4.878906 L 25.136719 4.871094 C 25.105469 4.855469 25.074219 4.847656 25.046875 4.847656 L 7.230469 4.847656 C 7.132812 4.847656 7.039062 4.917969 7.007812 5.011719 L 3.613281 16.484375 L 3.613281 16.597656 C 3.613281 16.613281 3.621094 16.628906 3.628906 16.644531 C 3.628906 16.652344 3.636719 16.652344 3.636719 16.660156 C 3.644531 16.667969 3.644531 16.683594 3.652344 16.691406 L 4.5 17.90625 C 4.546875 17.96875 4.613281 18.007812 4.691406 18.007812 L 12.109375 18.007812 L 12.109375 23.238281 L 8.199219 23.238281 C 8.070312 23.238281 7.96875 23.335938 7.96875 23.46875 C 7.96875 23.601562 8.070312 23.703125 8.199219 23.703125 L 18.875 23.703125 C 19.003906 23.703125 19.105469 23.601562 19.105469 23.46875 C 19.105469 23.335938 19.003906 23.238281 18.875 23.238281 L 14.972656 23.238281 L 14.972656 18 L 22.484375 18 C 22.582031 18 22.675781 17.929688 22.707031 17.835938 L 26.097656 6.363281 C 26.113281 6.296875 26.105469 6.21875 26.0625 6.164062 Z M 24.722656 5.3125 L 23.730469 8.671875 L 19.757812 8.671875 L 20.75 5.3125 Z M 13.695312 12.492188 L 9.722656 12.492188 L 10.71875 9.132812 L 14.6875 9.132812 Z M 15.171875 9.132812 L 19.144531 9.132812 L 18.152344 12.492188 L 14.179688 12.492188 Z M 13.554688 12.957031 L 12.5625 16.3125 L 8.59375 16.3125 L 9.585938 12.957031 Z M 14.042969 12.957031 L 18.011719 12.957031 L 17.019531 16.3125 L 13.046875 16.3125 Z M 18.488281 12.957031 L 22.460938 12.957031 L 21.46875 16.3125 L 17.496094 16.3125 Z M 18.628906 12.492188 L 19.621094 9.132812 L 23.589844 9.132812 L 22.597656 12.492188 Z M 20.265625 5.3125 L 19.273438 8.671875 L 15.304688 8.671875 L 16.304688 5.3125 Z M 15.820312 5.3125 L 14.828125 8.671875 L 10.855469 8.671875 L 11.847656 5.3125 Z M 7.402344 5.3125 L 11.371094 5.3125 L 10.378906 8.671875 L 6.40625 8.671875 Z M 6.269531 9.132812 L 10.238281 9.132812 L 9.246094 12.492188 L 5.277344 12.492188 Z M 5.136719 12.957031 L 9.109375 12.957031 L 8.117188 16.3125 L 4.144531 16.3125 Z M 14.519531 23.222656 L 12.570312 23.222656 L 12.570312 18 L 14.519531 18 Z M 22.3125 17.535156 L 4.808594 17.535156 L 4.285156 16.785156 L 21.644531 16.785156 C 21.742188 16.785156 21.835938 16.714844 21.867188 16.621094 L 25.113281 5.605469 L 25.621094 6.332031 Z M 22.3125 17.535156 " fill-opacity="1" fill-rule="nonzero"/></g></svg>