<svg xmlns="http://www.w3.org/2000/svg" xmlns:xlink="http://www.w3.org/1999/xlink" width="40" zoomAndPan="magnify" viewBox="0 0 30 30.000001" height="40" preserveAspectRatio="xMidYMid meet" version="1.0"><defs><clipPath id="2774260815"><path d="M 0.484375 0 L 29.515625 0 L 29.515625 28.855469 L 0.484375 28.855469 Z M 0.484375 0 " clip-rule="nonzero"/></clipPath><clipPath id="c718e39cb8"><path d="M 11.835938 3.667969 L 27.085938 3.667969 L 27.085938 18.914062 L 11.835938 18.914062 Z M 11.835938 3.667969 " clip-rule="nonzero"/></clipPath><clipPath id="528327c73e"><path d="M 3 11.003906 L 19.703125 11.003906 L 19.703125 21 L 3 21 Z M 3 11.003906 " clip-rule="nonzero"/></clipPath><clipPath id="e571d946dd"><path d="M 3 11.003906 L 19 11.003906 L 19 20 L 3 20 Z M 3 11.003906 " clip-rule="nonzero"/></clipPath><clipPath id="3b6553deba"><path d="M 9 20 L 12 20 L 12 24.988281 L 9 24.988281 Z M 9 20 " clip-rule="nonzero"/></clipPath><clipPath id="d23ae2abfd"><path d="M 2.898438 11.003906 L 19.703125 11.003906 L 19.703125 24.988281 L 2.898438 24.988281 Z M 2.898438 11.003906 " clip-rule="nonzero"/></clipPath></defs><g clip-path="url(#2774260815)"><path fill="#f79321" d="M 15 -0.175781 C 6.984375 -0.175781 0.484375 6.324219 0.484375 14.339844 C 0.484375 22.355469 6.984375 28.855469 15 28.855469 C 23.015625 28.855469 29.515625 22.355469 29.515625 14.339844 C 29.515625 6.324219 23.015625 -0.175781 15 -0.175781 " fill-opacity="1" fill-rule="nonzero"/></g><path stroke-linecap="round" transform="matrix(0.185964, 0, 0, 0.185964, 10.163981, 1.993263)" fill="none" stroke-linejoin="round" d="M 71.16677 50.008097 C 71.16677 61.687105 61.69333 71.18155 49.993316 71.18155 C 38.314308 71.18155 28.819863 61.70811 28.819863 50.008097 C 28.819863 38.308083 38.314308 28.813638 49.993316 28.813638 C 61.69333 28.813638 71.16677 38.308083 71.16677 50.008097 Z M 71.16677 50.008097 " stroke="#000000" stroke-width="2" stroke-opacity="1" stroke-miterlimit="10"/><g clip-path="url(#c718e39cb8)"><path stroke-linecap="round" transform="matrix(0.185964, 0, 0, 0.185964, 10.163981, 1.993263)" fill="none" stroke-linejoin="round" d="M 79.799994 53.768065 L 90.008623 50.008097 L 79.799994 46.227123 C 76.166058 44.882777 75.220814 41.332862 77.699453 38.350094 L 84.652244 29.989941 L 73.918479 31.838417 C 70.095494 32.489584 67.511829 29.905919 68.162996 26.082934 L 70.011472 15.34917 L 61.651319 22.30196 C 58.668551 24.780599 55.118636 23.835355 53.77429 20.201419 L 49.993316 9.99279 L 46.233348 20.180414 C 44.889002 23.835355 41.339087 24.780599 38.356319 22.30196 L 29.996166 15.34917 L 31.823636 26.061929 C 32.495809 29.905919 29.891139 32.489584 26.068154 31.838417 L 15.355394 29.989941 L 22.308185 38.350094 C 24.786824 41.332862 23.820575 44.882777 20.186639 46.227123 L 9.999015 49.987091 L 20.186639 53.768065 C 23.820575 55.112412 24.786824 58.662326 22.308185 61.645094 L 15.355394 70.005248 L 26.068154 68.156771 C 29.891139 67.505604 32.495809 70.110275 31.823636 73.933259 L 29.996166 84.646019 L 38.356319 77.693228 C 41.339087 75.214589 44.889002 76.159833 46.233348 79.814774 L 49.993316 90.002398 L 53.77429 79.814774 C 55.118636 76.159833 58.668551 75.214589 61.651319 77.693228 L 70.011472 84.646019 L 68.162996 73.933259 C 67.511829 70.110275 70.095494 67.505604 73.918479 68.177777 L 84.631238 70.005248 L 77.699453 61.645094 C 75.220814 58.662326 76.166058 55.112412 79.799994 53.768065 Z M 49.993316 71.18155 C 38.314308 71.18155 28.819863 61.70811 28.819863 50.008097 C 28.819863 38.308083 38.314308 28.813638 49.993316 28.813638 C 61.69333 28.813638 71.16677 38.308083 71.16677 50.008097 C 71.16677 61.687105 61.69333 71.18155 49.993316 71.18155 Z M 49.993316 71.18155 " stroke="#000000" stroke-width="2" stroke-opacity="1" stroke-miterlimit="10"/></g><g clip-path="url(#528327c73e)"><path fill="#f79321" d="M 18.898438 11.191406 L 3.070312 19.691406 L 3.703125 20.589844 L 16.996094 20.589844 L 19.53125 12.09375 Z M 18.898438 11.191406 " fill-opacity="1" fill-rule="nonzero"/></g><g clip-path="url(#e571d946dd)"><path fill="#f79321" d="M 5.605469 11.191406 L 3.070312 19.691406 L 16.363281 19.691406 L 18.898438 11.191406 Z M 5.605469 11.191406 " fill-opacity="1" fill-rule="nonzero"/></g><g clip-path="url(#3b6553deba)"><path fill="#f79321" d="M 9.421875 20.589844 L 11.21875 20.589844 L 11.21875 24.808594 L 9.421875 24.808594 Z M 9.421875 20.589844 " fill-opacity="1" fill-rule="nonzero"/></g><g clip-path="url(#d23ae2abfd)"><path fill="#000000" d="M 19.667969 11.996094 L 19.035156 11.09375 L 19.03125 11.089844 C 19.023438 11.082031 19.019531 11.070312 19.011719 11.066406 L 19.007812 11.058594 C 19 11.054688 18.988281 11.050781 18.984375 11.042969 L 18.976562 11.039062 C 18.953125 11.027344 18.933594 11.019531 18.910156 11.019531 L 5.605469 11.019531 C 5.53125 11.019531 5.460938 11.070312 5.4375 11.140625 L 2.90625 19.640625 L 2.90625 19.726562 C 2.90625 19.738281 2.910156 19.746094 2.917969 19.757812 C 2.917969 19.765625 2.921875 19.765625 2.921875 19.769531 C 2.929688 19.777344 2.929688 19.789062 2.933594 19.792969 L 3.566406 20.695312 C 3.601562 20.738281 3.652344 20.769531 3.710938 20.769531 L 9.25 20.769531 L 9.25 24.640625 L 6.328125 24.640625 C 6.230469 24.640625 6.15625 24.714844 6.15625 24.8125 C 6.15625 24.910156 6.230469 24.984375 6.328125 24.984375 L 14.300781 24.984375 C 14.398438 24.984375 14.472656 24.910156 14.472656 24.8125 C 14.472656 24.714844 14.398438 24.640625 14.300781 24.640625 L 11.386719 24.640625 L 11.386719 20.761719 L 16.996094 20.761719 C 17.070312 20.761719 17.140625 20.710938 17.164062 20.640625 L 19.695312 12.144531 C 19.707031 12.09375 19.703125 12.035156 19.667969 11.996094 Z M 18.667969 11.363281 L 17.925781 13.851562 L 14.960938 13.851562 L 15.703125 11.363281 Z M 10.433594 16.683594 L 7.46875 16.683594 L 8.210938 14.195312 L 11.175781 14.195312 Z M 11.535156 14.195312 L 14.5 14.195312 L 13.761719 16.683594 L 10.796875 16.683594 Z M 10.328125 17.027344 L 9.589844 19.511719 L 6.625 19.511719 L 7.363281 17.027344 Z M 10.691406 17.027344 L 13.65625 17.027344 L 12.914062 19.511719 L 9.949219 19.511719 Z M 14.011719 17.027344 L 16.976562 17.027344 L 16.238281 19.511719 L 13.273438 19.511719 Z M 14.117188 16.683594 L 14.859375 14.195312 L 17.824219 14.195312 L 17.082031 16.683594 Z M 15.339844 11.363281 L 14.597656 13.851562 L 11.632812 13.851562 L 12.382812 11.363281 Z M 12.019531 11.363281 L 11.277344 13.851562 L 8.3125 13.851562 L 9.054688 11.363281 Z M 5.730469 11.363281 L 8.699219 11.363281 L 7.957031 13.851562 L 4.992188 13.851562 Z M 4.886719 14.195312 L 7.851562 14.195312 L 7.113281 16.683594 L 4.144531 16.683594 Z M 4.042969 17.027344 L 7.007812 17.027344 L 6.265625 19.511719 L 3.300781 19.511719 Z M 11.046875 24.628906 L 9.59375 24.628906 L 9.59375 20.761719 L 11.046875 20.761719 Z M 16.867188 20.417969 L 3.796875 20.417969 L 3.40625 19.863281 L 16.367188 19.863281 C 16.445312 19.863281 16.511719 19.8125 16.535156 19.742188 L 18.960938 11.582031 L 19.339844 12.121094 Z M 16.867188 20.417969 " fill-opacity="1" fill-rule="nonzero"/></g></svg>